<svg width="75" height="15" viewBox="0 0 75 15" fill="none" xmlns="http://www.w3.org/2000/svg">
    <path d="M7.644 0.299999H5.691L0.42 15H2.625L6.678 3.303L10.731 15H12.936L7.644 0.299999ZM20.9316 0.299999H18.9156V2.673H20.9316V0.299999ZM20.9316 4.731H18.9156V13.194L20.9316 11.199V4.731ZM22.2336 12.984L20.1966 15H27.7566V12.984H22.2336ZM35.0122 15H37.0073V5.151H35.0122V15ZM30.6862 0.299999V2.295H41.3332V0.299999H30.6862ZM47.5363 12.984V15H57.3013V12.984H47.5363ZM56.5243 6.663H47.5363V8.616H56.5243V6.663ZM57.1753 0.299999H47.5363V2.295H57.1753V0.299999ZM72.4049 15H74.9459L69.5279 7.377L74.5049 0.299999H71.9429L67.5749 6.663H65.8109V0.299999H63.7949V15H65.8109V8.595H67.9109L72.4049 15Z"
          fill="#F13651"/>
</svg>
