<svg version="1.1" id="Capa_1" xmlns="http://www.w3.org/2000/svg" xmlns:xlink="http://www.w3.org/1999/xlink" x="0px" y="0px"
	 width="25px" height="25px" viewBox="0 0 384 384" style="enable-background:new 0 0 384 384;" xml:space="preserve" fill="#fff">
<g>
	<g>
		<g>
			<path d="M202.667,128h74.667v32c0,4.042,2.292,7.729,5.896,9.542c1.5,0.75,3.146,1.125,4.771,1.125
				c2.271,0,4.521-0.719,6.396-2.135l85.333-64C382.417,102.521,384,99.354,384,96s-1.583-6.521-4.271-8.531l-85.333-64
				c-3.229-2.438-7.563-2.813-11.167-1.01c-3.604,1.813-5.896,5.5-5.896,9.542v32h-74.667C196.771,64,192,68.771,192,74.667v42.667
				C192,123.229,196.771,128,202.667,128z"/>
			<path d="M353.188,252.052c-23.521,0-46.604-3.677-68.479-10.906c-10.729-3.646-23.896-0.292-30.438,6.417l-43.167,32.594
				c-50.063-26.729-80.917-57.563-107.292-107.26l31.667-42.073c8.229-8.229,11.146-20.219,7.604-31.427
				c-7.25-22.021-10.938-45.104-10.938-68.583C132.146,13.823,118.333,0,101.333,0H30.812C13.812,0,0,13.823,0,30.812
				C0,225.563,158.438,384,353.188,384c17,0,30.813-13.823,30.813-30.813v-70.323C384,265.875,370.188,252.052,353.188,252.052z"/>
		</g>
	</g>
</g>
<g>
</g>
<g>
</g>
<g>
</g>
<g>
</g>
<g>
</g>
<g>
</g>
<g>
</g>
<g>
</g>
<g>
</g>
<g>
</g>
<g>
</g>
<g>
</g>
<g>
</g>
<g>
</g>
<g>
</g>
</svg>
