<svg width="30" height="30" viewBox="0 0 30 30" fill="none" xmlns="http://www.w3.org/2000/svg">
<circle cx="15" cy="15" r="15" transform="rotate(180 15 15)" fill="#F8F8F8"/>
<path d="M12.6053 18C12.7103 18.0006 12.8131 17.9691 12.9006 17.9094C12.9881 17.8498 13.0563 17.7647 13.0966 17.6651C13.1368 17.5654 13.1473 17.4557 13.1267 17.3499C13.106 17.2441 13.0552 17.147 12.9806 17.071L11.0194 15.0393L20.4714 15.0393C20.6116 15.0393 20.746 14.9821 20.8452 14.8802C20.9443 14.7783 21 14.6401 21 14.4961C21 14.352 20.9443 14.2138 20.8452 14.1119C20.746 14.0101 20.6116 13.9528 20.4714 13.9528L11.0194 13.9528L12.9806 11.9265C13.0296 11.8759 13.0683 11.8158 13.0947 11.7498C13.121 11.6837 13.1345 11.613 13.1342 11.5416C13.134 11.4702 13.12 11.3996 13.0932 11.3338C13.0664 11.2679 13.0273 11.2081 12.978 11.1578C12.9287 11.1076 12.8702 11.0677 12.806 11.0406C12.7417 11.0136 12.6729 10.9998 12.6034 11C12.4631 11.0005 12.3288 11.0583 12.23 11.1606L9 14.4961L12.23 17.8316C12.2785 17.8839 12.3367 17.9257 12.4011 17.9547C12.4656 17.9836 12.535 17.999 12.6053 18Z" fill="#999999"/>
</svg>
