<svg width="25" height="25" viewBox="0 0 25 25" fill="none" xmlns="http://www.w3.org/2000/svg">
<path d="M10.4458 14.2876C11.9534 15.8171 13.7776 16.9978 15.7902 17.7471L18.513 15.5804C18.5937 15.5248 18.6894 15.4951 18.7875 15.4951C18.8855 15.4951 18.9812 15.5248 19.0619 15.5804L24.1175 18.8376C24.3094 18.953 24.4719 19.1115 24.592 19.3004C24.7122 19.4894 24.7868 19.7037 24.8099 19.9265C24.833 20.1492 24.804 20.3743 24.7252 20.5839C24.6464 20.7935 24.5199 20.982 24.3558 21.1343L21.9869 23.4743C21.6477 23.8095 21.2307 24.0555 20.7732 24.1904C20.3158 24.3252 19.8321 24.3447 19.3652 24.2471C14.7085 23.2853 10.4163 21.0328 6.97912 17.7471C3.61825 14.4287 1.29254 10.2063 0.284124 5.59209C0.184505 5.13249 0.205297 4.65496 0.344485 4.20576C0.483672 3.75657 0.736535 3.35094 1.07857 3.0282L3.53412 0.65931C3.68608 0.503156 3.87139 0.383403 4.07619 0.309016C4.28098 0.234629 4.49995 0.207537 4.7167 0.229767C4.93345 0.251998 5.14236 0.322975 5.32779 0.437385C5.51322 0.551795 5.67036 0.706672 5.78746 0.890421L9.15301 5.88098C9.21106 5.95934 9.2424 6.05429 9.2424 6.15181C9.2424 6.24933 9.21106 6.34428 9.15301 6.42264L6.93579 9.08764C7.70538 11.06 8.90438 12.8363 10.4458 14.2876Z" fill="#F2F2F2"/>
</svg>
