<svg width="30" height="30" viewBox="0 0 30 30" fill="none" xmlns="http://www.w3.org/2000/svg">
<circle cx="15" cy="15" r="15" fill="#F8F8F8"/>
<path d="M17.3947 12C17.2897 11.9994 17.1869 12.0309 17.0994 12.0906C17.0119 12.1502 16.9437 12.2353 16.9034 12.3349C16.8632 12.4346 16.8527 12.5443 16.8733 12.6501C16.894 12.7559 16.9448 12.853 17.0194 12.929L18.9806 14.9607L9.52863 14.9607C9.38843 14.9607 9.25397 15.0179 9.15483 15.1198C9.0557 15.2217 9 15.3599 9 15.5039C9 15.648 9.0557 15.7862 9.15483 15.8881C9.25397 15.9899 9.38843 16.0472 9.52863 16.0472L18.9806 16.0472L17.0194 18.0735C16.9704 18.1241 16.9317 18.1842 16.9053 18.2502C16.879 18.3163 16.8655 18.387 16.8658 18.4584C16.866 18.5298 16.88 18.6004 16.9068 18.6662C16.9336 18.7321 16.9727 18.7919 17.022 18.8422C17.0713 18.8924 17.1298 18.9323 17.194 18.9594C17.2583 18.9864 17.3271 19.0002 17.3966 19C17.5369 18.9995 17.6712 18.9417 17.77 18.8394L21 15.5039L17.77 12.1684C17.7215 12.1161 17.6633 12.0743 17.5989 12.0453C17.5344 12.0164 17.465 12.001 17.3947 12Z" fill="#999999"/>
</svg>
