<svg width="143" height="66" viewBox="0 0 143 66" fill="none" xmlns="http://www.w3.org/2000/svg">
<path d="M113.9 65.2H38.9L53 14.8H128L113.9 65.2ZM45.2 60.4001H110.3L121.7 19.5H56.6L45.2 60.4001ZM82.2 47.1C82.8 47 84.4 46.8 117.1 26.6L114.6 22.5C103.6 29.3 86 40 81.9 42.1C79 40.1 69.4 31.1 61 22.8L57.6 26.2001C77.1 45.4001 80.3 47.1 81.7 47.1C82 47.2 82.1 47.2 82.2 47.1ZM47 20.6H23.5V25.4001H47V20.6ZM43.4 32.3H13.1V37.1H43.4V32.3ZM39.8 44H0V48.8001H39.8V44Z" fill="#555555"/>
<circle cx="128" cy="15" r="15" fill="#004462"/>
<path fill-rule="evenodd" clip-rule="evenodd" d="M135 11.036L127.159 20L121 15.3063L122.162 14.0312L126.898 17.639L133.584 10L135 11.036Z" fill="white"/>
</svg>
